PathFileType	4	(X/Y/Z)	T1_P2_Vision_NoMovement_0_0-733.trc
DataRate	CameraRate	NumFrames	NumMarkers	Units	OrigDataRate	OrigDataStartFrame	OrigNumFrames
60	60	5	27	m	60	458	733
Frame#	Time	RHip			RKnee			RAnkle			RBigToe			RSmallToe			RHeel			LHip			LKnee			LAnkle			LBigToe			LSmallToe			LHeel			Neck			Head			Nose			RShoulder			RElbow			RWrist			RThumb			RIndex			RPinky			LShoulder			LElbow			LWrist			LThumb			LIndex			LPinky		
		X1	Y1	Z1	X2	Y2	Z2	X3	Y3	Z3	X4	Y4	Z4	X5	Y5	Z5	X6	Y6	Z6	X7	Y7	Z7	X8	Y8	Z8	X9	Y9	Z9	X10	Y10	Z10	X11	Y11	Z11	X12	Y12	Z12	X13	Y13	Z13	X14	Y14	Z14	X15	Y15	Z15	X16	Y16	Z16	X17	Y17	Z17	X18	Y18	Z18	X19	Y19	Z19	X20	Y20	Z20	X21	Y21	Z21	X22	Y22	Z22	X23	Y23	Z23	X24	Y24	Z24	X25	Y25	Z25	X26	Y26	Z26	X27	Y27	Z27
459	7.65	446.6017829242168	3696.805336777373	634.9474156923492	850.2977963874996	3749.3467057642374	651.7479968566903	1212.0635184800144	3722.8381150253394	659.2276669625415	1290.5041366732496	3643.2225989080926	649.5720843139276	1286.463323670144	3690.766513184545	606.5592007380877	1289.2208254160544	3820.3231368824863	747.4339641731419	464.6646689522532	3631.392232017775	850.8307890438319	850.6337631921438	3642.53207465411	854.8543554530705	1240.5018990101478	3695.1171214598394	869.709725060059	1308.615306117487	3551.473415309512	799.2890965426812	1283.2643655344484	3537.787874482968	844.5330551522949	1258.2223137158473	3706.6895965023427	857.4903179842703	-110.25944922952378	3627.1369326192494	751.4582689767545	-382.3698718822127	3571.1297887898963	732.0838215868373	-227.76828945747823	3447.754614863093	681.0984494482976	-46.58918805563592	3694.216278301996	604.5726528341064	194.67603829780728	3729.0284973795706	531.112202380955	362.51167958861623	3548.736533960687	614.9534933447873	432.2323300603063	3516.82836245007	701.4035561638635	451.4181036486912	3517.347331085646	712.8204397383739	470.2950912127272	3435.9552500076356	617.2827323081119	-31.220871270540766	3518.56992387495	878.3210525444216	209.39712947294777	3475.6670248255436	907.0130245758663	355.87643582877837	3475.3624046355744	717.3073833764822	418.4292540634778	3508.6507337075186	624.3830657741046	452.0810014404143	3520.2137833796032	624.1305807497323	455.6190516564288	3431.5727617967204	631.2016507785642
460	7.666666666666667	449.7417343697485	3718.9183616639957	640.787377582488	844.598591053113	3747.296220925882	650.2636642430994	1211.6292385529637	3722.80275102076	659.1414144808369	1295.132392843562	3646.150213706339	651.3442252292368	1286.1996764027456	3690.966707306503	606.7511795191843	1280.4616078873144	3801.462192411152	732.2296342069233	464.7460568285441	3631.4622490932284	850.8994331429927	845.2759959662259	3640.838828605221	853.4483649893886	1240.3876732011072	3695.276850672921	869.7728201780375	1301.9676626505448	3547.427578692288	798.2247924431138	1280.6915877181445	3543.0184793891653	847.5669699920386	1258.0541343685363	3706.8407258368993	857.5625573573662	-110.13642648957274	3627.006135497467	751.3609905397336	-382.2588150914518	3570.897252131981	731.8990277003257	-223.4152635076839	3451.5164312961165	682.7453479825887	-46.51213318269882	3694.183623051527	604.6124744284369	194.5929985634419	3729.0326778195986	531.0994891604965	362.5578890316481	3548.785681634821	614.9972226472431	432.22034530704127	3516.3789042048465	701.204417179035	451.2783751098316	3517.1291615449804	712.793810430862	473.0085090053434	3447.3997614208065	634.3811394142122	-31.221703659545653	3518.6312778787624	878.3156532100577	209.45713895925655	3475.7837979293927	907.1227817784763	355.8435617835362	3475.125911135444	717.3209854130583	414.67055485303894	3512.3385654236004	626.5685934698678	451.8558996667085	3519.856176635452	624.1057037193003	455.54857084640923	3431.6757344742487	631.2817940435428
461	7.683333333333334	449.75203878111165	3718.681136540521	640.6749687118764	844.5200393764127	3749.3066371782347	645.4506055164902	1206.0317710798852	3720.5465504748686	657.4057222393218	1282.5123856184366	3621.875991169799	643.2730589318303	1286.2462959481468	3690.3761804693227	606.4176286557977	1280.431011072267	3801.395284310879	732.286879000788	464.807319506846	3631.4121756690542	850.8761937368032	845.3664074887005	3640.9155097567204	853.4585830951443	1235.533945718657	3693.23326767934	867.9800648671223	1308.049528116616	3545.04538158266	805.8551785694946	1280.8200444536692	3542.8338706960694	847.5870210279456	1258.2467455883336	3706.9431145939143	857.591424912748	-110.17430702632507	3627.0742947631434	751.4006412369882	-382.25978796348596	3571.0082571947883	731.9860026408174	-223.416223243188	3451.5760992994865	682.8843830468903	-41.73652481481435	3689.5858003085277	602.2776569296981	194.64954888546112	3728.858848945035	531.036532982667	362.6532915767482	3548.6203817707346	614.9383370953916	428.7444957535638	3520.684384475448	703.4542852248163	451.4597311934728	3514.4052004107307	716.2544844262284	473.44196841924384	3447.595294358151	634.4721408492123	-31.065636779166013	3518.7502311287767	878.371886135371	214.81012298171873	3479.703037054209	909.003378080463	355.82888593245815	3474.9967779986996	717.2587819688201	409.68245729712027	3508.5519416083257	625.1565987976136	451.9905364852187	3519.5286285051493	623.9036376245471	455.63778450328334	3431.5279133939825	631.2079418808793
462	7.7	449.76797337759155	3718.7783776882757	640.7515143181117	844.5923534057544	3747.1758758359833	650.1995335587021	1211.6508065480232	3724.7809676206334	653.9014503228334	1295.2078230123846	3645.6345302045456	651.2561643184669	1286.149594263749	3690.218894384139	606.1853474178878	1289.7070947796938	3824.186528656018	743.3370470295532	464.7842200165031	3631.5110433627756	850.9517328593706	845.5773713569604	3643.71818365641	849.1094994254416	1235.4259617738853	3693.1651415994243	867.9103376410715	1294.3150904873746	3526.65465842288	791.363989451526	1282.9616419414438	3537.76762641442	844.4533915290035	1258.2186981604725	3706.991545386381	857.6188465386105	-110.23346227110473	3627.191562298798	751.4828141527042	-382.2745781386193	3571.196080859431	732.1118687983693	-227.78165458520803	3447.9883134119054	681.0953373862475	-46.276433423881905	3694.1744339731167	604.7502309415279	194.71790715914608	3728.922701839045	531.0458494505717	362.59460410449077	3548.437047621504	614.8512302630187	432.2531567549741	3515.8789282435264	701.1447073607206	451.24598817411726	3514.3145410853685	716.2070375870227	473.0095648127949	3447.0244317476327	634.180066732945	-31.152945391578665	3518.8171559126054	878.3007761180951	214.80464516786785	3479.7320345271746	909.0650193123356	353.1038235034438	3461.036941536616	704.7226762974369	413.1651079441836	3504.122554928363	622.919241600299	449.0988912928851	3498.369036293773	618.0591398830476	455.6676963735689	3431.433323578109	631.2375011622082
463	7.716666666666667	449.6858549923296	3718.758056169744	640.7199132020269	844.4292805500899	3749.454833474601	645.4966583374218	1206.0918380763203	3720.724848046156	657.3874077209297	1282.0154587395962	3621.2473313999194	642.7446256830019	1286.068691278794	3690.3958078861397	606.4812602580348	1289.7229638242268	3824.3980199537123	743.4106864793872	464.6846994136901	3631.557322543406	850.9859538852089	845.529049770935	3643.5616931340983	849.0604802873089	1240.517810868398	3695.0022117578355	869.6448071602138	1308.727611954652	3551.765288713534	799.667409948429	1288.33671460727	3539.6538909888623	846.3430761214277	1258.2872675013796	3706.63476379802	857.4832553098396	-110.22980601338037	3627.366653484428	751.6353669920665	-382.252870462508	3571.1429608572194	731.9697729601421	-223.43328232896016	3451.9177812829676	683.0146755799186	-46.262892524350356	3694.1993509435256	604.7975428781776	193.17614912544352	3707.1127771025394	526.2253722949856	362.6076358193759	3548.3295953824595	614.7811971591478	435.2128538911419	3531.3055367899897	714.9861397729502	451.2793096182566	3514.5080057103305	716.3583470093187	472.7779187442373	3446.727992014566	634.057321215407	-31.135400025125932	3518.930609224615	878.3452229398764	214.77920509227042	3479.423883876364	908.8881919698047	350.60402999113995	3441.4567226236336	698.4861957806527	413.2624463643784	3504.5770990299993	623.1670274176437	452.0719026528314	3519.4953284435596	624.0184891385474	455.62664816051773	3431.6999895518175	631.2270888492143
